# WaveFront *.obj file (generated by Autodesk ATF)

mtllib mueble1.mtl

g Sólido1

v -250.000000 -50.000000 -800.000000
v -250.000000 -50.000000 -750.000000
v -250.000000 -50.000000 750.000000
v -250.000000 -50.000000 800.000000
v -250.000000 0.000000 -750.000000
v -250.000000 0.000000 750.000000
v -250.000000 750.000000 -800.000000
v -250.000000 750.000000 800.000000
v -200.000000 -50.000000 -800.000000
v -200.000000 -50.000000 -750.000000
v -200.000000 -50.000000 750.000000
v -200.000000 -50.000000 800.000000
v -200.000000 0.000000 -800.000000
v -200.000000 0.000000 -750.000000
v -200.000000 0.000000 750.000000
v -200.000000 0.000000 800.000000
v 200.000000 -50.000000 -800.000000
v 200.000000 -50.000000 -750.000000
v 200.000000 -50.000000 750.000000
v 200.000000 -50.000000 800.000000
v 200.000000 0.000000 -800.000000
v 200.000000 0.000000 -750.000000
v 200.000000 0.000000 750.000000
v 200.000000 0.000000 800.000000
v 250.000000 -50.000000 -800.000000
v 250.000000 -50.000000 -750.000000
v 250.000000 -50.000000 750.000000
v 250.000000 -50.000000 800.000000
v 250.000000 0.000000 -750.000000
v 250.000000 0.000000 750.000000
v 250.000000 60.000000 -750.000000
v 250.000000 60.000000 -270.000000
v 250.000000 60.000000 -240.000000
v 250.000000 60.000000 240.000000
v 250.000000 60.000000 270.000000
v 250.000000 60.000000 750.000000
v 250.000000 690.000000 -750.000000
v 250.000000 690.000000 -270.000000
v 250.000000 690.000000 -240.000000
v 250.000000 690.000000 240.000000
v 250.000000 690.000000 270.000000
v 250.000000 690.000000 750.000000
v 250.000000 750.000000 -800.000000
v 250.000000 750.000000 800.000000
v 262.000008 71.999998 -738.000031
v 262.000008 71.999998 -282.000008
v 262.000008 71.999998 -227.999992
v 262.000008 71.999998 227.999992
v 262.000008 71.999998 282.000008
v 262.000008 71.999998 738.000031
v 262.000008 678.000031 -738.000031
v 262.000008 678.000031 -282.000008
v 262.000008 678.000031 -227.999992
v 262.000008 678.000031 227.999992
v 262.000008 678.000031 282.000008
v 262.000008 678.000031 738.000031
v 262.500000 60.000000 -750.000000
v 262.500000 60.000000 -270.000000
v 262.500000 60.000000 -240.000000
v 262.500000 60.000000 240.000000
v 262.500000 60.000000 270.000000
v 262.500000 60.000000 750.000000
v 262.500000 71.999998 -738.000031
v 262.500000 71.999998 -282.000008
v 262.500000 71.999998 -227.999992
v 262.500000 71.999998 227.999992
v 262.500000 71.999998 282.000008
v 262.500000 71.999998 738.000031
v 262.500000 678.000031 -738.000031
v 262.500000 678.000031 -282.000008
v 262.500000 678.000031 -227.999992
v 262.500000 678.000031 227.999992
v 262.500000 678.000031 282.000008
v 262.500000 678.000031 738.000031
v 262.500000 690.000000 -750.000000
v 262.500000 690.000000 -270.000000
v 262.500000 690.000000 -240.000000
v 262.500000 690.000000 240.000000
v 262.500000 690.000000 270.000000
v 262.500000 690.000000 750.000000
vt 0.000000 1.200000 0.000000
vt 60.599998 1.200000 0.000000
vt 60.599998 1.250000 0.000000
vt 0.000000 1.250000 0.000000
vt 0.000000 1.200000 0.000000
vt 45.599998 1.200000 0.000000
vt 45.599998 1.250000 0.000000
vt 0.000000 1.250000 0.000000
vt 0.000000 1.200000 0.000000
vt 45.599998 1.200000 0.000000
vt 45.599998 1.250000 0.000000
vt 0.000000 1.250000 0.000000
vt 0.000000 1.200000 0.000000
vt 60.599998 1.200000 0.000000
vt 60.599998 1.250000 0.000000
vt 0.000000 1.250000 0.000000
vt 0.000000 0.000000 0.000000
vt 63.000000 0.000000 0.000000
vt 63.000000 1.250000 0.000000
vt 0.000000 1.250000 0.000000
vt 0.000000 0.000000 0.000000
vt 48.000000 0.000000 0.000000
vt 48.000000 1.250000 0.000000
vt 0.000000 1.250000 0.000000
vt 0.000000 0.000000 0.000000
vt 63.000000 0.000000 0.000000
vt 63.000000 1.250000 0.000000
vt 0.000000 1.250000 0.000000
vt 0.000000 0.000000 0.000000
vt 48.000000 0.000000 0.000000
vt 48.000000 1.250000 0.000000
vt 0.000000 1.250000 0.000000
vt -24.000000 -31.500000 0.000000
vt 24.000000 -31.500000 0.000000
vt 24.000000 31.500000 0.000000
vt -24.000000 31.500000 0.000000
vt -22.799999 30.299999 0.000000
vt 22.799999 30.299999 0.000000
vt 22.799999 -30.299999 0.000000
vt -22.799999 -30.299999 0.000000
vt 0.000000 1.200000 0.000000
vt 60.599998 1.200000 0.000000
vt 60.599998 1.250000 0.000000
vt 0.000000 1.250000 0.000000
vt 0.000000 1.200000 0.000000
vt 45.599998 1.200000 0.000000
vt 45.599998 1.250000 0.000000
vt 0.000000 1.250000 0.000000
vt 0.000000 1.200000 0.000000
vt 45.599998 1.200000 0.000000
vt 45.599998 1.250000 0.000000
vt 0.000000 1.250000 0.000000
vt 0.000000 1.200000 0.000000
vt 60.599998 1.200000 0.000000
vt 60.599998 1.250000 0.000000
vt 0.000000 1.250000 0.000000
vt 0.000000 0.000000 0.000000
vt 63.000000 0.000000 0.000000
vt 63.000000 1.250000 0.000000
vt 0.000000 1.250000 0.000000
vt 0.000000 0.000000 0.000000
vt 48.000000 0.000000 0.000000
vt 48.000000 1.250000 0.000000
vt 0.000000 1.250000 0.000000
vt 0.000000 0.000000 0.000000
vt 63.000000 0.000000 0.000000
vt 63.000000 1.250000 0.000000
vt 0.000000 1.250000 0.000000
vt 0.000000 0.000000 0.000000
vt 48.000000 0.000000 0.000000
vt 48.000000 1.250000 0.000000
vt 0.000000 1.250000 0.000000
vt -24.000000 -31.500000 0.000000
vt 24.000000 -31.500000 0.000000
vt 24.000000 31.500000 0.000000
vt -24.000000 31.500000 0.000000
vt -22.799999 30.299999 0.000000
vt 22.799999 30.299999 0.000000
vt 22.799999 -30.299999 0.000000
vt -22.799999 -30.299999 0.000000
vt 0.000000 1.200000 0.000000
vt 45.599998 1.200000 0.000000
vt 45.599998 1.250000 0.000000
vt 0.000000 1.250000 0.000000
vt 0.000000 1.200000 0.000000
vt 60.599998 1.200000 0.000000
vt 60.599998 1.250000 0.000000
vt 0.000000 1.250000 0.000000
vt 0.000000 1.200000 0.000000
vt 60.599998 1.200000 0.000000
vt 60.599998 1.250000 0.000000
vt 0.000000 1.250000 0.000000
vt 0.000000 1.200000 0.000000
vt 45.599998 1.200000 0.000000
vt 45.599998 1.250000 0.000000
vt 0.000000 1.250000 0.000000
vt 0.000000 0.000000 0.000000
vt 63.000000 0.000000 0.000000
vt 63.000000 1.250000 0.000000
vt 0.000000 1.250000 0.000000
vt 0.000000 0.000000 0.000000
vt 48.000000 0.000000 0.000000
vt 48.000000 1.250000 0.000000
vt 0.000000 1.250000 0.000000
vt 0.000000 0.000000 0.000000
vt 63.000000 0.000000 0.000000
vt 63.000000 1.250000 0.000000
vt 0.000000 1.250000 0.000000
vt 0.000000 0.000000 0.000000
vt 48.000000 0.000000 0.000000
vt 48.000000 1.250000 0.000000
vt 0.000000 1.250000 0.000000
vt -24.000000 -31.500000 0.000000
vt 24.000000 -31.500000 0.000000
vt 24.000000 31.500000 0.000000
vt -24.000000 31.500000 0.000000
vt 22.799999 30.299999 0.000000
vt 22.799999 -30.299999 0.000000
vt -22.799999 -30.299999 0.000000
vt -22.799999 30.299999 0.000000
vt -22.799999 -30.299999 0.000000
vt 22.799999 -30.299999 0.000000
vt 22.799999 30.299999 0.000000
vt -22.799999 30.299999 0.000000
vt -22.799999 -30.299999 0.000000
vt 22.799999 -30.299999 0.000000
vt 22.799999 30.299999 0.000000
vt -22.799999 30.299999 0.000000
vt -22.799999 30.299999 0.000000
vt -22.799999 -30.299999 0.000000
vt 22.799999 -30.299999 0.000000
vt 22.799999 30.299999 0.000000
vt 0.000000 0.000000 0.000000
vt 5.000000 0.000000 0.000000
vt 5.000000 5.000000 0.000000
vt 0.000000 5.000000 0.000000
vt 0.000000 0.000000 0.000000
vt 5.000000 0.000000 0.000000
vt 5.000000 5.000000 0.000000
vt 0.000000 5.000000 0.000000
vt -2.500000 2.500000 0.000000
vt -2.500000 -2.500000 0.000000
vt 2.500000 -2.500000 0.000000
vt 2.500000 2.500000 0.000000
vt 0.000000 0.000000 0.000000
vt 5.000000 0.000000 0.000000
vt 5.000000 5.000000 0.000000
vt 0.000000 5.000000 0.000000
vt 0.000000 0.000000 0.000000
vt 5.000000 0.000000 0.000000
vt 5.000000 5.000000 0.000000
vt 0.000000 5.000000 0.000000
vt 2.500000 2.500000 0.000000
vt -2.500000 2.500000 0.000000
vt -2.500000 -2.500000 0.000000
vt 2.500000 -2.500000 0.000000
vt 0.000000 0.000000 0.000000
vt 5.000000 0.000000 0.000000
vt 5.000000 5.000000 0.000000
vt 0.000000 5.000000 0.000000
vt 0.000000 0.000000 0.000000
vt 5.000000 0.000000 0.000000
vt 5.000000 5.000000 0.000000
vt 0.000000 5.000000 0.000000
vt -2.500000 2.500000 0.000000
vt -2.500000 -2.500000 0.000000
vt 2.500000 -2.500000 0.000000
vt 2.500000 2.500000 0.000000
vt 0.000000 0.000000 0.000000
vt 5.000000 0.000000 0.000000
vt 5.000000 5.000000 0.000000
vt 0.000000 5.000000 0.000000
vt 0.000000 0.000000 0.000000
vt 5.000000 0.000000 0.000000
vt 5.000000 5.000000 0.000000
vt 0.000000 5.000000 0.000000
vt -2.500000 2.500000 0.000000
vt -2.500000 -2.500000 0.000000
vt 2.500000 -2.500000 0.000000
vt 2.500000 2.500000 0.000000
vt 80.000000 20.000000 0.000000
vt 75.000000 20.000000 0.000000
vt 75.000000 25.000000 0.000000
vt -75.000000 25.000000 0.000000
vt -75.000000 20.000000 0.000000
vt -80.000000 20.000000 0.000000
vt -80.000000 -20.000000 0.000000
vt -75.000000 -20.000000 0.000000
vt -75.000000 -25.000000 0.000000
vt 75.000000 -25.000000 0.000000
vt 75.000000 -20.000000 0.000000
vt 80.000000 -20.000000 0.000000
vt 5.000000 0.000000 0.000000
vt 155.000000 0.000000 0.000000
vt 155.000000 -5.000000 0.000000
vt 160.000000 -5.000000 0.000000
vt 160.000000 75.000000 0.000000
vt 0.000000 75.000000 0.000000
vt 0.000000 -5.000000 0.000000
vt 5.000000 -5.000000 0.000000
vt 5.000000 0.000000 0.000000
vt 45.000000 0.000000 0.000000
vt 45.000000 -5.000000 0.000000
vt 50.000000 -5.000000 0.000000
vt 50.000000 75.000000 0.000000
vt 0.000000 75.000000 0.000000
vt 0.000000 -5.000000 0.000000
vt 5.000000 -5.000000 0.000000
vt 107.000000 6.000000 0.000000
vt 107.000000 69.000000 0.000000
vt 155.000000 69.000000 0.000000
vt 155.000000 6.000000 0.000000
vt 56.000000 6.000000 0.000000
vt 56.000000 69.000000 0.000000
vt 104.000000 69.000000 0.000000
vt 104.000000 6.000000 0.000000
vt 5.000000 6.000000 0.000000
vt 5.000000 69.000000 0.000000
vt 53.000000 69.000000 0.000000
vt 53.000000 6.000000 0.000000
vt 5.000000 0.000000 0.000000
vt 155.000000 0.000000 0.000000
vt 155.000000 -5.000000 0.000000
vt 160.000000 -5.000000 0.000000
vt 160.000000 75.000000 0.000000
vt 0.000000 75.000000 0.000000
vt 0.000000 -5.000000 0.000000
vt 5.000000 -5.000000 0.000000
vt 5.000000 0.000000 0.000000
vt 45.000000 0.000000 0.000000
vt 45.000000 -5.000000 0.000000
vt 50.000000 -5.000000 0.000000
vt 50.000000 75.000000 0.000000
vt 0.000000 75.000000 0.000000
vt 0.000000 -5.000000 0.000000
vt 5.000000 -5.000000 0.000000
vt 80.000000 -25.000000 0.000000
vt 80.000000 25.000000 0.000000
vt -80.000000 25.000000 0.000000
vt -80.000000 -25.000000 0.000000
vn 0.000000 0.000000 -0.100000
vn 0.000000 0.000000 -0.100000
vn 0.000000 0.000000 -0.100000
vn 0.000000 0.000000 -0.100000
vn 0.000000 -0.100000 0.000000
vn 0.000000 -0.100000 0.000000
vn 0.000000 -0.100000 0.000000
vn 0.000000 -0.100000 0.000000
vn 0.000000 0.100000 0.000000
vn 0.000000 0.100000 0.000000
vn 0.000000 0.100000 0.000000
vn 0.000000 0.100000 0.000000
vn 0.000000 0.000000 0.100000
vn 0.000000 0.000000 0.100000
vn 0.000000 0.000000 0.100000
vn 0.000000 0.000000 0.100000
vn 0.000000 0.000000 0.100000
vn 0.000000 0.000000 0.100000
vn 0.000000 0.000000 0.100000
vn 0.000000 0.000000 0.100000
vn 0.000000 0.100000 0.000000
vn 0.000000 0.100000 0.000000
vn 0.000000 0.100000 0.000000
vn 0.000000 0.100000 0.000000
vn 0.000000 0.000000 -0.100000
vn 0.000000 0.000000 -0.100000
vn 0.000000 0.000000 -0.100000
vn 0.000000 0.000000 -0.100000
vn 0.000000 -0.100000 0.000000
vn 0.000000 -0.100000 0.000000
vn 0.000000 -0.100000 0.000000
vn 0.000000 -0.100000 0.000000
vn 0.100000 0.000000 0.000000
vn 0.100000 0.000000 0.000000
vn 0.100000 0.000000 0.000000
vn 0.100000 0.000000 0.000000
vn 0.100000 0.000000 0.000000
vn 0.100000 0.000000 0.000000
vn 0.100000 0.000000 0.000000
vn 0.100000 0.000000 0.000000
vn 0.000000 0.000000 -0.100000
vn 0.000000 0.000000 -0.100000
vn 0.000000 0.000000 -0.100000
vn 0.000000 0.000000 -0.100000
vn 0.000000 -0.100000 0.000000
vn 0.000000 -0.100000 0.000000
vn 0.000000 -0.100000 0.000000
vn 0.000000 -0.100000 0.000000
vn 0.000000 0.100000 0.000000
vn 0.000000 0.100000 0.000000
vn 0.000000 0.100000 0.000000
vn 0.000000 0.100000 0.000000
vn 0.000000 0.000000 0.100000
vn 0.000000 0.000000 0.100000
vn 0.000000 0.000000 0.100000
vn 0.000000 0.000000 0.100000
vn 0.000000 0.000000 0.100000
vn 0.000000 0.000000 0.100000
vn 0.000000 0.000000 0.100000
vn 0.000000 0.000000 0.100000
vn 0.000000 0.100000 0.000000
vn 0.000000 0.100000 0.000000
vn 0.000000 0.100000 0.000000
vn 0.000000 0.100000 0.000000
vn 0.000000 0.000000 -0.100000
vn 0.000000 0.000000 -0.100000
vn 0.000000 0.000000 -0.100000
vn 0.000000 0.000000 -0.100000
vn 0.000000 -0.100000 0.000000
vn 0.000000 -0.100000 0.000000
vn 0.000000 -0.100000 0.000000
vn 0.000000 -0.100000 0.000000
vn 0.100000 0.000000 0.000000
vn 0.100000 0.000000 0.000000
vn 0.100000 0.000000 0.000000
vn 0.100000 0.000000 0.000000
vn 0.100000 0.000000 0.000000
vn 0.100000 0.000000 0.000000
vn 0.100000 0.000000 0.000000
vn 0.100000 0.000000 0.000000
vn 0.000000 -0.100000 0.000000
vn 0.000000 -0.100000 0.000000
vn 0.000000 -0.100000 0.000000
vn 0.000000 -0.100000 0.000000
vn 0.000000 0.000000 0.100000
vn 0.000000 0.000000 0.100000
vn 0.000000 0.000000 0.100000
vn 0.000000 0.000000 0.100000
vn 0.000000 0.000000 -0.100000
vn 0.000000 0.000000 -0.100000
vn 0.000000 0.000000 -0.100000
vn 0.000000 0.000000 -0.100000
vn 0.000000 0.100000 0.000000
vn 0.000000 0.100000 0.000000
vn 0.000000 0.100000 0.000000
vn 0.000000 0.100000 0.000000
vn 0.000000 0.000000 0.100000
vn 0.000000 0.000000 0.100000
vn 0.000000 0.000000 0.100000
vn 0.000000 0.000000 0.100000
vn 0.000000 0.100000 0.000000
vn 0.000000 0.100000 0.000000
vn 0.000000 0.100000 0.000000
vn 0.000000 0.100000 0.000000
vn 0.000000 0.000000 -0.100000
vn 0.000000 0.000000 -0.100000
vn 0.000000 0.000000 -0.100000
vn 0.000000 0.000000 -0.100000
vn 0.000000 -0.100000 0.000000
vn 0.000000 -0.100000 0.000000
vn 0.000000 -0.100000 0.000000
vn 0.000000 -0.100000 0.000000
vn 0.100000 0.000000 0.000000
vn 0.100000 0.000000 0.000000
vn 0.100000 0.000000 0.000000
vn 0.100000 0.000000 0.000000
vn 0.100000 0.000000 0.000000
vn 0.100000 0.000000 0.000000
vn 0.100000 0.000000 0.000000
vn 0.100000 0.000000 0.000000
vn 0.100000 0.000000 0.000000
vn 0.100000 0.000000 0.000000
vn 0.100000 0.000000 0.000000
vn 0.100000 0.000000 0.000000
vn 0.100000 0.000000 0.000000
vn 0.100000 0.000000 0.000000
vn 0.100000 0.000000 0.000000
vn 0.100000 0.000000 0.000000
vn 0.100000 0.000000 0.000000
vn 0.100000 0.000000 0.000000
vn 0.100000 0.000000 0.000000
vn 0.100000 0.000000 0.000000
vn -0.100000 0.000000 0.000000
vn -0.100000 0.000000 0.000000
vn -0.100000 0.000000 0.000000
vn -0.100000 0.000000 0.000000
vn 0.000000 0.000000 0.100000
vn 0.000000 0.000000 0.100000
vn 0.000000 0.000000 0.100000
vn 0.000000 0.000000 0.100000
vn 0.000000 -0.100000 0.000000
vn 0.000000 -0.100000 0.000000
vn 0.000000 -0.100000 0.000000
vn 0.000000 -0.100000 0.000000
vn 0.000000 0.000000 -0.100000
vn 0.000000 0.000000 -0.100000
vn 0.000000 0.000000 -0.100000
vn 0.000000 0.000000 -0.100000
vn 0.100000 0.000000 0.000000
vn 0.100000 0.000000 0.000000
vn 0.100000 0.000000 0.000000
vn 0.100000 0.000000 0.000000
vn 0.000000 -0.100000 0.000000
vn 0.000000 -0.100000 0.000000
vn 0.000000 -0.100000 0.000000
vn 0.000000 -0.100000 0.000000
vn 0.100000 0.000000 0.000000
vn 0.100000 0.000000 0.000000
vn 0.100000 0.000000 0.000000
vn 0.100000 0.000000 0.000000
vn 0.000000 0.000000 0.100000
vn 0.000000 0.000000 0.100000
vn 0.000000 0.000000 0.100000
vn 0.000000 0.000000 0.100000
vn 0.000000 -0.100000 0.000000
vn 0.000000 -0.100000 0.000000
vn 0.000000 -0.100000 0.000000
vn 0.000000 -0.100000 0.000000
vn 0.000000 0.000000 -0.100000
vn 0.000000 0.000000 -0.100000
vn 0.000000 0.000000 -0.100000
vn 0.000000 0.000000 -0.100000
vn -0.100000 0.000000 0.000000
vn -0.100000 0.000000 0.000000
vn -0.100000 0.000000 0.000000
vn -0.100000 0.000000 0.000000
vn 0.000000 -0.100000 0.000000
vn 0.000000 -0.100000 0.000000
vn 0.000000 -0.100000 0.000000
vn 0.000000 -0.100000 0.000000
vn 0.000000 -0.100000 0.000000
vn 0.000000 -0.100000 0.000000
vn 0.000000 -0.100000 0.000000
vn 0.000000 -0.100000 0.000000
vn 0.000000 -0.100000 0.000000
vn 0.000000 -0.100000 0.000000
vn 0.000000 -0.100000 0.000000
vn 0.000000 -0.100000 0.000000
vn 0.000000 -0.100000 0.000000
vn 0.000000 -0.100000 0.000000
vn 0.000000 -0.100000 0.000000
vn 0.000000 -0.100000 0.000000
vn -0.100000 0.000000 0.000000
vn -0.100000 0.000000 0.000000
vn -0.100000 0.000000 0.000000
vn -0.100000 0.000000 0.000000
vn -0.100000 0.000000 0.000000
vn -0.100000 0.000000 0.000000
vn -0.100000 0.000000 0.000000
vn -0.100000 0.000000 0.000000
vn 0.000000 0.000000 -0.100000
vn 0.000000 0.000000 -0.100000
vn 0.000000 0.000000 -0.100000
vn 0.000000 0.000000 -0.100000
vn 0.000000 0.000000 -0.100000
vn 0.000000 0.000000 -0.100000
vn 0.000000 0.000000 -0.100000
vn 0.000000 0.000000 -0.100000
vn 0.100000 0.000000 0.000000
vn 0.100000 0.000000 0.000000
vn 0.100000 0.000000 0.000000
vn 0.100000 0.000000 0.000000
vn 0.100000 0.000000 0.000000
vn 0.100000 0.000000 0.000000
vn 0.100000 0.000000 0.000000
vn 0.100000 0.000000 0.000000
vn 0.100000 0.000000 0.000000
vn 0.100000 0.000000 0.000000
vn 0.100000 0.000000 0.000000
vn 0.100000 0.000000 0.000000
vn 0.100000 0.000000 0.000000
vn 0.100000 0.000000 0.000000
vn 0.100000 0.000000 0.000000
vn 0.100000 0.000000 0.000000
vn 0.100000 0.000000 0.000000
vn 0.100000 0.000000 0.000000
vn 0.100000 0.000000 0.000000
vn 0.100000 0.000000 0.000000
vn 0.000000 0.000000 0.100000
vn 0.000000 0.000000 0.100000
vn 0.000000 0.000000 0.100000
vn 0.000000 0.000000 0.100000
vn 0.000000 0.000000 0.100000
vn 0.000000 0.000000 0.100000
vn 0.000000 0.000000 0.100000
vn 0.000000 0.000000 0.100000
vn 0.000000 0.100000 0.000000
vn 0.000000 0.100000 0.000000
vn 0.000000 0.100000 0.000000
vn 0.000000 0.100000 0.000000
usemtl 64,64,64
f 46/1/1 52/2/2 64/4/4
f 64/4/4 52/2/2 70/3/3
f 52/5/5 51/6/6 70/8/8
f 70/8/8 51/6/6 69/7/7
f 45/9/9 46/10/10 63/12/12
f 63/12/12 46/10/10 64/11/11
f 51/13/13 45/14/14 69/16/16
f 69/16/16 45/14/14 63/15/15
usemtl 191,26,26
f 38/17/17 32/18/18 76/20/20
f 76/20/20 32/18/18 58/19/19
f 37/21/21 38/22/22 75/24/24
f 75/24/24 38/22/22 76/23/23
f 31/25/25 37/26/26 57/28/28
f 57/28/28 37/26/26 75/27/27
f 32/29/29 31/30/30 58/32/32
f 58/32/32 31/30/30 57/31/31
f 57/34/34 64/40/40 58/33/33
f 58/33/33 64/40/40 70/37/37
f 58/33/33 70/37/37 76/36/36
f 76/36/36 70/37/37 69/38/38
f 76/36/36 69/38/38 75/35/35
f 75/35/35 69/38/38 57/34/34
f 57/34/34 69/38/38 63/39/39
f 57/34/34 63/39/39 64/40/40
usemtl 64,64,64
f 48/41/41 54/42/42 66/44/44
f 66/44/44 54/42/42 72/43/43
f 54/45/45 53/46/46 72/48/48
f 72/48/48 53/46/46 71/47/47
f 47/49/49 48/50/50 65/52/52
f 65/52/52 48/50/50 66/51/51
f 53/53/53 47/54/54 71/56/56
f 71/56/56 47/54/54 65/55/55
usemtl 191,26,26
f 40/57/57 34/58/58 78/60/60
f 78/60/60 34/58/58 60/59/59
f 39/61/61 40/62/62 77/64/64
f 77/64/64 40/62/62 78/63/63
f 33/65/65 39/66/66 59/68/68
f 59/68/68 39/66/66 77/67/67
f 34/69/69 33/70/70 60/72/72
f 60/72/72 33/70/70 59/71/71
f 59/74/74 66/80/80 60/73/73
f 60/73/73 66/80/80 72/77/77
f 60/73/73 72/77/77 78/76/76
f 78/76/76 72/77/77 71/78/78
f 78/76/76 71/78/78 77/75/75
f 77/75/75 71/78/78 59/74/74
f 59/74/74 71/78/78 65/79/79
f 59/74/74 65/79/79 66/80/80
usemtl 64,64,64
f 56/81/81 55/82/82 74/84/84
f 74/84/84 55/82/82 73/83/83
f 55/85/85 49/86/86 73/88/88
f 73/88/88 49/86/86 67/87/87
f 50/89/89 56/90/90 68/92/92
f 68/92/92 56/90/90 74/91/91
f 49/93/93 50/94/94 67/96/96
f 67/96/96 50/94/94 68/95/95
usemtl 191,26,26
f 42/97/97 36/98/98 80/100/100
f 80/100/100 36/98/98 62/99/99
f 41/101/101 42/102/102 79/104/104
f 79/104/104 42/102/102 80/103/103
usemtl 64,64,64
f 35/105/105 41/106/106 61/108/108
f 61/108/108 41/106/106 79/107/107
usemtl 191,26,26
f 36/109/109 35/110/110 62/112/112
f 62/112/112 35/110/110 61/111/111
f 61/114/114 68/119/119 62/113/113
f 62/113/113 68/119/119 74/120/120
f 62/113/113 74/120/120 80/116/116
f 80/116/116 74/120/120 73/117/117
f 80/116/116 73/117/117 79/115/115
f 79/115/115 73/117/117 61/114/114
f 61/114/114 73/117/117 67/118/118
f 61/114/114 67/118/118 68/119/119
usemtl 64,64,64
f 46/121/121 45/122/122 52/124/124
f 52/124/124 45/122/122 51/123/123
f 48/125/125 47/126/126 54/128/128
f 54/128/128 47/126/126 53/127/127
f 50/130/130 49/131/131 56/129/129
f 56/129/129 49/131/131 55/132/132
f 22/133/133 21/134/134 18/136/136
f 18/136/136 21/134/134 17/135/135
f 29/137/137 22/138/138 26/140/140
f 26/140/140 22/138/138 18/139/139
f 18/142/142 17/143/143 26/141/141
f 26/141/141 17/143/143 25/144/144
f 6/145/145 15/146/146 3/148/148
f 3/148/148 15/146/146 11/147/147
f 15/149/149 16/150/150 11/152/152
f 11/152/152 16/150/150 12/151/151
f 11/153/153 12/154/154 3/156/156
f 3/156/156 12/154/154 4/155/155
f 13/157/157 14/158/158 9/160/160
f 9/160/160 14/158/158 10/159/159
f 14/161/161 5/162/162 10/164/164
f 10/164/164 5/162/162 2/163/163
f 2/166/166 1/167/167 10/165/165
f 10/165/165 1/167/167 9/168/168
f 23/169/169 30/170/170 19/172/172
f 19/172/172 30/170/170 27/171/171
f 24/173/173 23/174/174 20/176/176
f 20/176/176 23/174/174 19/175/175
f 20/178/178 19/179/179 28/177/177
f 28/177/177 19/179/179 27/180/180
f 21/181/181 22/182/182 13/192/192
f 13/192/192 22/182/182 14/191/191
f 14/191/191 22/182/182 23/185/185
f 14/191/191 23/185/185 15/188/188
f 15/188/188 23/185/185 24/186/186
f 15/188/188 24/186/186 16/187/187
f 29/183/183 30/184/184 22/182/182
f 22/182/182 30/184/184 23/185/185
f 6/189/189 5/190/190 15/188/188
f 15/188/188 5/190/190 14/191/191
f 6/194/194 7/198/198 5/193/193
f 5/193/193 7/198/198 1/199/199
f 5/193/193 1/199/199 2/200/200
f 3/195/195 4/196/196 6/194/194
f 6/194/194 4/196/196 8/197/197
f 6/194/194 8/197/197 7/198/198
f 13/202/202 43/206/206 21/201/201
f 21/201/201 43/206/206 25/207/207
f 21/201/201 25/207/207 17/208/208
f 9/203/203 1/204/204 13/202/202
f 13/202/202 1/204/204 7/205/205
f 13/202/202 7/205/205 43/206/206
f 38/210/210 39/215/215 32/209/209
f 32/209/209 39/215/215 33/216/216
f 32/209/209 33/216/216 29/222/222
f 29/222/222 33/216/216 34/213/213
f 29/222/222 34/213/213 30/221/221
f 30/221/221 34/213/213 35/220/220
f 30/221/221 35/220/220 36/217/217
f 39/215/215 38/210/210 43/225/225
f 43/225/225 38/210/210 37/211/211
f 43/225/225 37/211/211 31/212/212
f 32/209/209 29/222/222 31/212/212
f 31/212/212 29/222/222 25/224/224
f 31/212/212 25/224/224 43/225/225
f 35/220/220 34/213/213 41/219/219
f 41/219/219 34/213/213 40/214/214
f 41/219/219 40/214/214 44/226/226
f 44/226/226 40/214/214 39/215/215
f 44/226/226 39/215/215 43/225/225
f 42/218/218 44/226/226 36/217/217
f 36/217/217 44/226/226 28/227/227
f 36/217/217 28/227/227 30/221/221
f 30/221/221 28/227/227 27/228/228
f 42/218/218 41/219/219 44/226/226
f 29/222/222 26/223/223 25/224/224
f 24/230/230 8/234/234 16/229/229
f 16/229/229 8/234/234 4/235/235
f 16/229/229 4/235/235 12/236/236
f 20/231/231 28/232/232 24/230/230
f 24/230/230 28/232/232 44/233/233
f 24/230/230 44/233/233 8/234/234
f 44/238/238 43/239/239 8/237/237
f 8/237/237 43/239/239 7/240/240
# 80 vertices
# 240 texture params
# 240 normals
# 156 facets

# 1 groups
